<svg width="600" height="420" viewBox="0 0 600 420" fill="none" xmlns="http://www.w3.org/2000/svg"><rect width="600" height="420" rx="24" fill="#151225"/><path d="M190 114H410V310C410 322 400.15 332 388 332H212C199.85 332 190 322 190 310V114Z" fill="#17233B" stroke="#D6B56A" stroke-width="4"/><path d="M300 114V332" stroke="#D6B56A" stroke-width="4"/><path d="M230 170C256 160 280 160 300 170" stroke="#D6B56A" stroke-width="4"/><path d="M300 170C320 160 344 160 370 170" stroke="#D6B56A" stroke-width="4"/><path d="M230 220C256 210 280 210 300 220" stroke="#D6B56A" stroke-width="4"/><path d="M300 220C320 210 344 210 370 220" stroke="#D6B56A" stroke-width="4"/><text x="300" y="62" text-anchor="middle" fill="#F4E8C8" font-size="28" font-family="Georgia, serif">LINGUA</text></svg>
